<svg xmlns="http://www.w3.org/2000/svg" xmlns:xlink="http://www.w3.org/1999/xlink" width="512" zoomAndPan="magnify" viewBox="0 0 384 383.999986" height="512" preserveAspectRatio="xMidYMid meet" version="1.0"><defs><g/><clipPath id="d4057dbaab"><path d="M 191.699219 0 L 229.171875 0 L 229.171875 384 L 191.699219 384 Z M 191.699219 0 " clip-rule="nonzero"/></clipPath><clipPath id="93b04fef53"><path d="M 0.699219 0 L 38.171875 0 L 38.171875 384 L 0.699219 384 Z M 0.699219 0 " clip-rule="nonzero"/></clipPath><clipPath id="90d70e8c4e"><rect x="0" width="39" y="0" height="384"/></clipPath><clipPath id="6179a679dc"><rect x="0" width="104" y="0" height="174"/></clipPath><clipPath id="ec91a49e07"><rect x="0" width="39" y="0" height="151"/></clipPath><clipPath id="f4c61cfe10"><path d="M 0 172.257812 L 384 172.257812 L 384 203.335938 L 0 203.335938 Z M 0 172.257812 " clip-rule="nonzero"/></clipPath><clipPath id="f09f31cad7"><path d="M 0 0.257812 L 384 0.257812 L 384 31.335938 L 0 31.335938 Z M 0 0.257812 " clip-rule="nonzero"/></clipPath><clipPath id="442d404f07"><rect x="0" width="384" y="0" height="32"/></clipPath><clipPath id="e085aaefc9"><rect x="0" width="252" y="0" height="39"/></clipPath><clipPath id="4789ac013c"><rect x="0" width="384" y="0" height="384"/></clipPath></defs><rect x="-38.4" width="460.8" fill="#ffffff" y="-38.399999" height="460.799983" fill-opacity="1"/><rect x="-38.4" width="460.8" fill="#0cc0df" y="-38.399999" height="460.799983" fill-opacity="1"/><g><g clip-path="url(#4789ac013c)"><g clip-path="url(#d4057dbaab)"><g transform="matrix(1, 0, 0, 1, 191, 0)"><g clip-path="url(#90d70e8c4e)"><g clip-path="url(#93b04fef53)"><path fill="#0cc0df" d="M 38.171875 -190.597656 L 38.171875 524.792969 L 0.699219 524.792969 L 0.699219 -190.597656 Z M 38.171875 -190.597656 " fill-opacity="1" fill-rule="nonzero"/></g></g></g></g><g transform="matrix(1, 0, 0, 1, 126, 105)"><g clip-path="url(#6179a679dc)"><g fill="#000000" fill-opacity="1"><g transform="translate(0.0412765, 124.561324)"><g><path d="M 54.171875 1.8125 C 40.378906 1.726562 29.191406 -2.617188 20.609375 -11.234375 C 12.035156 -19.859375 7.75 -31.195312 7.75 -45.25 C 7.75 -59.300781 12.035156 -70.65625 20.609375 -79.3125 C 29.191406 -87.976562 40.378906 -92.3125 54.171875 -92.3125 C 66.066406 -92.3125 76.539062 -89.382812 85.59375 -83.53125 L 88.1875 -65.296875 L 87.015625 -65.296875 C 85.117188 -72.710938 81.300781 -78.421875 75.5625 -82.421875 C 69.832031 -86.429688 62.703125 -88.4375 54.171875 -88.4375 C 43.222656 -88.4375 34.363281 -84.46875 27.59375 -76.53125 C 20.832031 -68.601562 17.453125 -58.175781 17.453125 -45.25 C 17.453125 -32.320312 20.832031 -21.914062 27.59375 -14.03125 C 34.363281 -6.144531 43.222656 -2.15625 54.171875 -2.0625 C 59.773438 -2.0625 65.097656 -3.050781 70.140625 -5.03125 C 75.179688 -7.019531 79.597656 -9.78125 83.390625 -13.3125 L 83.390625 -36.203125 C 83.390625 -38.097656 82.804688 -39.539062 81.640625 -40.53125 C 80.484375 -41.519531 78.867188 -42.015625 76.796875 -42.015625 L 74.734375 -42.015625 L 74.734375 -43.3125 L 100.078125 -43.3125 L 100.078125 -42.015625 L 98.140625 -42.015625 C 95.984375 -42.015625 94.34375 -41.519531 93.21875 -40.53125 C 92.101562 -39.539062 91.585938 -38.097656 91.671875 -36.203125 L 91.671875 -14.875 C 89.429688 -11.9375 86.757812 -9.300781 83.65625 -6.96875 C 80.550781 -4.644531 76.390625 -2.597656 71.171875 -0.828125 C 65.960938 0.929688 60.296875 1.8125 54.171875 1.8125 Z M 54.171875 1.8125 "/></g></g></g></g></g><g transform="matrix(1, 0, 0, 1, 173, 127)"><g clip-path="url(#ec91a49e07)"><g fill="#000000" fill-opacity="1"><g transform="translate(1.266436, 107.859708)"><g><path d="M 29.703125 -77.03125 C 27.015625 -77.03125 24.96875 -75.878906 23.5625 -73.578125 C 22.957031 -72.535156 22.617188 -71.34375 22.546875 -70 L 22.546875 0 C 22.546875 6.25 20.59375 11.53125 16.6875 15.84375 C 12.78125 20.164062 7.960938 22.328125 2.234375 22.328125 L 2.234375 21.328125 C 5.878906 20.054688 8.96875 17.316406 11.5 13.109375 C 14.03125 8.910156 15.296875 4.429688 15.296875 -0.328125 L 15.296875 -70 C 15.222656 -71.9375 14.492188 -73.59375 13.109375 -74.96875 C 11.734375 -76.34375 10.082031 -77.03125 8.15625 -77.03125 L 6.703125 -77.03125 L 6.703125 -78.15625 L 31.140625 -78.15625 L 31.140625 -77.03125 Z M 29.703125 -77.03125 "/></g></g></g></g></g><g clip-path="url(#f4c61cfe10)"><g transform="matrix(1, 0, 0, 1, 0, 172)"><g clip-path="url(#442d404f07)"><g clip-path="url(#f09f31cad7)"><path fill="#0cc0df" d="M -79.164062 0.257812 L 733.429688 0.257812 L 733.429688 31.335938 L -79.164062 31.335938 Z M -79.164062 0.257812 " fill-opacity="1" fill-rule="nonzero"/></g></g></g></g><g transform="matrix(1, 0, 0, 1, 68, 170)"><g clip-path="url(#e085aaefc9)"><g fill="#000000" fill-opacity="1"><g transform="translate(1.469031, 26.176516)"><g><path d="M 7.765625 -20.15625 C 7.066406 -20.15625 6.535156 -19.851562 6.171875 -19.25 C 6.015625 -18.976562 5.925781 -18.664062 5.90625 -18.3125 L 5.90625 0 C 5.90625 1.632812 5.390625 3.015625 4.359375 4.140625 C 3.335938 5.273438 2.078125 5.84375 0.578125 5.84375 L 0.578125 5.578125 C 1.535156 5.242188 2.34375 4.523438 3 3.421875 C 3.664062 2.328125 4 1.15625 4 -0.09375 L 4 -18.3125 C 3.976562 -18.820312 3.785156 -19.253906 3.421875 -19.609375 C 3.066406 -19.972656 2.640625 -20.15625 2.140625 -20.15625 L 1.75 -20.15625 L 1.75 -20.453125 L 8.15625 -20.453125 L 8.15625 -20.15625 Z M 7.765625 -20.15625 "/></g></g></g><g fill="#000000" fill-opacity="1"><g transform="translate(15.958487, 26.176516)"><g><path d="M 19.4375 -17.234375 L 18.984375 -17.234375 C 18.460938 -17.234375 18.066406 -17.03125 17.796875 -16.625 C 17.679688 -16.445312 17.613281 -16.242188 17.59375 -16.015625 L 17.59375 -6.171875 C 17.59375 -4.140625 16.941406 -2.535156 15.640625 -1.359375 C 14.347656 -0.179688 12.570312 0.40625 10.3125 0.40625 C 8.050781 0.40625 6.269531 -0.175781 4.96875 -1.34375 C 3.664062 -2.507812 3.015625 -4.109375 3.015625 -6.140625 L 3.015625 -15.984375 C 3.015625 -16.335938 2.875 -16.632812 2.59375 -16.875 C 2.320312 -17.113281 1.992188 -17.234375 1.609375 -17.234375 L 1.171875 -17.234375 L 1.171875 -17.53125 L 6.71875 -17.53125 L 6.71875 -17.234375 L 6.28125 -17.234375 C 5.894531 -17.234375 5.5625 -17.113281 5.28125 -16.875 C 5.007812 -16.632812 4.875 -16.335938 4.875 -15.984375 L 4.875 -6.484375 C 4.875 -4.597656 5.351562 -3.109375 6.3125 -2.015625 C 7.28125 -0.921875 8.644531 -0.375 10.40625 -0.375 C 12.175781 -0.375 13.59375 -0.890625 14.65625 -1.921875 C 15.71875 -2.960938 16.25 -4.378906 16.25 -6.171875 L 16.25 -15.984375 C 16.226562 -16.347656 16.082031 -16.644531 15.8125 -16.875 C 15.550781 -17.113281 15.226562 -17.234375 14.84375 -17.234375 L 14.40625 -17.234375 L 14.40625 -17.53125 L 19.4375 -17.53125 Z M 19.4375 -17.234375 "/></g></g></g><g fill="#000000" fill-opacity="1"><g transform="translate(41.429209, 26.176516)"><g><path d="M 7.078125 -16.625 L 5.515625 -16.625 L 5.515625 -1.875 C 5.535156 -1.269531 5.8125 -0.8125 6.34375 -0.5 C 6.59375 -0.363281 6.875 -0.296875 7.1875 -0.296875 L 7.5625 -0.296875 L 7.59375 0 L 1.609375 0 L 1.609375 -0.296875 L 2.015625 -0.296875 C 2.460938 -0.296875 2.847656 -0.445312 3.171875 -0.75 C 3.492188 -1.050781 3.65625 -1.414062 3.65625 -1.84375 L 3.65625 -15.71875 C 3.65625 -16.144531 3.492188 -16.503906 3.171875 -16.796875 C 2.847656 -17.085938 2.460938 -17.234375 2.015625 -17.234375 L 1.609375 -17.234375 L 1.609375 -17.53125 L 8.9375 -17.53125 C 10.769531 -17.53125 12.21875 -17.109375 13.28125 -16.265625 C 14.34375 -15.429688 14.875 -14.332031 14.875 -12.96875 C 14.875 -11.601562 14.441406 -10.460938 13.578125 -9.546875 C 12.722656 -8.640625 11.632812 -8.117188 10.3125 -7.984375 C 10.9375 -7.703125 11.6875 -6.941406 12.5625 -5.703125 C 12.539062 -5.703125 12.875 -5.269531 13.5625 -4.40625 C 14.257812 -3.550781 14.816406 -2.882812 15.234375 -2.40625 C 15.648438 -1.925781 16 -1.5625 16.28125 -1.3125 C 17 -0.632812 17.828125 -0.296875 18.765625 -0.296875 L 18.765625 0 L 17.859375 0 C 16.316406 0 15.109375 -0.300781 14.234375 -0.90625 C 13.566406 -1.351562 12.960938 -1.910156 12.421875 -2.578125 C 12.304688 -2.734375 11.8125 -3.414062 10.9375 -4.625 C 10.070312 -5.84375 9.609375 -6.492188 9.546875 -6.578125 C 8.503906 -7.878906 7.523438 -8.53125 6.609375 -8.53125 L 6.609375 -8.828125 C 8.878906 -8.828125 10.25 -8.941406 10.71875 -9.171875 C 11.363281 -9.503906 11.800781 -9.851562 12.03125 -10.21875 C 12.519531 -11 12.765625 -11.859375 12.765625 -12.796875 C 12.765625 -13.984375 12.414062 -14.898438 11.71875 -15.546875 C 11.019531 -16.191406 10.070312 -16.539062 8.875 -16.59375 C 8.351562 -16.613281 7.753906 -16.625 7.078125 -16.625 Z M 7.078125 -16.625 "/></g></g></g><g fill="#000000" fill-opacity="1"><g transform="translate(64.76792, 26.176516)"><g><path d="M 21.234375 -17.234375 C 20.804688 -17.234375 20.4375 -17.09375 20.125 -16.8125 C 19.820312 -16.53125 19.660156 -16.1875 19.640625 -15.78125 L 19.640625 -3.328125 C 19.640625 -2.203125 19.707031 -1.128906 19.84375 -0.109375 L 19.890625 0.40625 L 19.640625 0.40625 L 4.4375 -14 L 4.4375 -1.8125 C 4.4375 -1.382812 4.59375 -1.023438 4.90625 -0.734375 C 5.21875 -0.441406 5.597656 -0.296875 6.046875 -0.296875 L 6.546875 -0.296875 L 6.546875 0 L 1.015625 0 L 1.015625 -0.296875 L 1.515625 -0.296875 C 1.960938 -0.296875 2.34375 -0.441406 2.65625 -0.734375 C 2.96875 -1.023438 3.125 -1.382812 3.125 -1.8125 L 3.125 -14.3125 C 3.125 -15.5 3.054688 -16.5625 2.921875 -17.5 L 2.859375 -17.96875 L 3.1875 -17.9375 L 18.34375 -3.65625 L 18.34375 -15.78125 C 18.3125 -16.1875 18.140625 -16.53125 17.828125 -16.8125 C 17.515625 -17.09375 17.144531 -17.234375 16.71875 -17.234375 L 16.21875 -17.234375 L 16.21875 -17.53125 L 21.734375 -17.53125 L 21.734375 -17.234375 Z M 21.234375 -17.234375 "/></g></g></g><g fill="#000000" fill-opacity="1"><g transform="translate(92.545883, 26.176516)"><g><path d="M 19.28125 -0.296875 L 19.515625 -0.296875 L 19.515625 0 L 13.53125 0 L 13.53125 -0.296875 L 13.765625 -0.296875 C 14.128906 -0.296875 14.410156 -0.421875 14.609375 -0.671875 C 14.804688 -0.921875 14.90625 -1.15625 14.90625 -1.375 C 14.90625 -1.601562 14.863281 -1.828125 14.78125 -2.046875 L 13.171875 -5.9375 L 5.78125 -5.9375 L 4.171875 -2.140625 C 4.078125 -1.878906 4.03125 -1.632812 4.03125 -1.40625 C 4.03125 -1.1875 4.125 -0.945312 4.3125 -0.6875 C 4.507812 -0.425781 4.804688 -0.296875 5.203125 -0.296875 L 5.4375 -0.296875 L 5.4375 0 L -0.140625 0 L -0.140625 -0.296875 L 0.09375 -0.296875 C 0.5 -0.296875 0.910156 -0.4375 1.328125 -0.71875 C 1.742188 -1 2.085938 -1.421875 2.359375 -1.984375 C 6.628906 -11.097656 8.851562 -15.867188 9.03125 -16.296875 C 9.363281 -17.117188 9.535156 -17.664062 9.546875 -17.9375 L 9.8125 -17.9375 L 17.03125 -1.984375 C 17.59375 -0.859375 18.34375 -0.296875 19.28125 -0.296875 Z M 6.171875 -6.8125 L 12.828125 -6.8125 L 9.546875 -14.8125 Z M 6.171875 -6.8125 "/></g></g></g><g fill="#000000" fill-opacity="1"><g transform="translate(116.936005, 26.176516)"><g><path d="M 2.015625 -0.296875 C 2.484375 -0.296875 2.878906 -0.445312 3.203125 -0.75 C 3.523438 -1.050781 3.691406 -1.414062 3.703125 -1.84375 L 3.703125 -15.65625 C 3.691406 -16.082031 3.515625 -16.453125 3.171875 -16.765625 C 2.828125 -17.078125 2.421875 -17.234375 1.953125 -17.234375 L 1.609375 -17.234375 L 1.609375 -17.53125 L 7.65625 -17.53125 L 7.65625 -17.234375 L 7.296875 -17.234375 C 6.835938 -17.234375 6.4375 -17.078125 6.09375 -16.765625 C 5.75 -16.453125 5.578125 -16.082031 5.578125 -15.65625 L 5.578125 -0.90625 L 10.140625 -0.90625 C 11.035156 -0.90625 11.796875 -1.0625 12.421875 -1.375 C 13.046875 -1.6875 13.515625 -2.054688 13.828125 -2.484375 C 14.148438 -2.910156 14.46875 -3.472656 14.78125 -4.171875 L 15.078125 -4.171875 L 13.46875 0 L 1.609375 0 L 1.609375 -0.296875 Z M 2.015625 -0.296875 "/></g></g></g><g fill="#000000" fill-opacity="1"><g transform="translate(137.617014, 26.176516)"><g/></g></g><g fill="#000000" fill-opacity="1"><g transform="translate(149.945268, 26.176516)"><g><path d="M 11.046875 0.40625 C 8.140625 0.382812 5.8125 -0.445312 4.0625 -2.09375 C 2.320312 -3.738281 1.453125 -5.96875 1.453125 -8.78125 C 1.453125 -11.59375 2.320312 -13.820312 4.0625 -15.46875 C 5.8125 -17.113281 8.0625 -17.9375 10.8125 -17.9375 C 13.570312 -17.9375 15.921875 -17.351562 17.859375 -16.1875 L 18.5 -12.03125 L 18.234375 -12.03125 C 17.828125 -13.75 17.03125 -15.015625 15.84375 -15.828125 C 14.664062 -16.648438 13 -17.0625 10.84375 -17.0625 C 8.695312 -17.0625 6.945312 -16.316406 5.59375 -14.828125 C 4.238281 -13.335938 3.5625 -11.316406 3.5625 -8.765625 C 3.5625 -6.210938 4.242188 -4.191406 5.609375 -2.703125 C 6.972656 -1.210938 8.859375 -0.46875 11.265625 -0.46875 C 13.671875 -0.46875 15.738281 -1.316406 17.46875 -3.015625 L 17.5 -6.890625 C 17.519531 -7.242188 17.40625 -7.519531 17.15625 -7.71875 C 16.914062 -7.925781 16.582031 -8.03125 16.15625 -8.03125 L 15.75 -8.03125 L 15.75 -8.328125 L 21.09375 -8.328125 L 21.09375 -8.03125 L 20.6875 -8.03125 C 19.8125 -8.03125 19.375 -7.640625 19.375 -6.859375 L 19.375 -3.359375 C 18.550781 -2.347656 17.421875 -1.46875 15.984375 -0.71875 C 14.554688 0.03125 12.910156 0.40625 11.046875 0.40625 Z M 11.046875 0.40625 "/></g></g></g><g fill="#000000" fill-opacity="1"><g transform="translate(176.642631, 26.176516)"><g><path d="M 19.4375 -17.234375 L 18.984375 -17.234375 C 18.460938 -17.234375 18.066406 -17.03125 17.796875 -16.625 C 17.679688 -16.445312 17.613281 -16.242188 17.59375 -16.015625 L 17.59375 -6.171875 C 17.59375 -4.140625 16.941406 -2.535156 15.640625 -1.359375 C 14.347656 -0.179688 12.570312 0.40625 10.3125 0.40625 C 8.050781 0.40625 6.269531 -0.175781 4.96875 -1.34375 C 3.664062 -2.507812 3.015625 -4.109375 3.015625 -6.140625 L 3.015625 -15.984375 C 3.015625 -16.335938 2.875 -16.632812 2.59375 -16.875 C 2.320312 -17.113281 1.992188 -17.234375 1.609375 -17.234375 L 1.171875 -17.234375 L 1.171875 -17.53125 L 6.71875 -17.53125 L 6.71875 -17.234375 L 6.28125 -17.234375 C 5.894531 -17.234375 5.5625 -17.113281 5.28125 -16.875 C 5.007812 -16.632812 4.875 -16.335938 4.875 -15.984375 L 4.875 -6.484375 C 4.875 -4.597656 5.351562 -3.109375 6.3125 -2.015625 C 7.28125 -0.921875 8.644531 -0.375 10.40625 -0.375 C 12.175781 -0.375 13.59375 -0.890625 14.65625 -1.921875 C 15.71875 -2.960938 16.25 -4.378906 16.25 -6.171875 L 16.25 -15.984375 C 16.226562 -16.347656 16.082031 -16.644531 15.8125 -16.875 C 15.550781 -17.113281 15.226562 -17.234375 14.84375 -17.234375 L 14.40625 -17.234375 L 14.40625 -17.53125 L 19.4375 -17.53125 Z M 19.4375 -17.234375 "/></g></g></g><g fill="#000000" fill-opacity="1"><g transform="translate(202.113354, 26.176516)"><g><path d="M 7.078125 -16.625 L 5.515625 -16.625 L 5.515625 -1.875 C 5.535156 -1.269531 5.8125 -0.8125 6.34375 -0.5 C 6.59375 -0.363281 6.875 -0.296875 7.1875 -0.296875 L 7.5625 -0.296875 L 7.59375 0 L 1.609375 0 L 1.609375 -0.296875 L 2.015625 -0.296875 C 2.460938 -0.296875 2.847656 -0.445312 3.171875 -0.75 C 3.492188 -1.050781 3.65625 -1.414062 3.65625 -1.84375 L 3.65625 -15.71875 C 3.65625 -16.144531 3.492188 -16.503906 3.171875 -16.796875 C 2.847656 -17.085938 2.460938 -17.234375 2.015625 -17.234375 L 1.609375 -17.234375 L 1.609375 -17.53125 L 8.9375 -17.53125 C 10.769531 -17.53125 12.21875 -17.109375 13.28125 -16.265625 C 14.34375 -15.429688 14.875 -14.332031 14.875 -12.96875 C 14.875 -11.601562 14.441406 -10.460938 13.578125 -9.546875 C 12.722656 -8.640625 11.632812 -8.117188 10.3125 -7.984375 C 10.9375 -7.703125 11.6875 -6.941406 12.5625 -5.703125 C 12.539062 -5.703125 12.875 -5.269531 13.5625 -4.40625 C 14.257812 -3.550781 14.816406 -2.882812 15.234375 -2.40625 C 15.648438 -1.925781 16 -1.5625 16.28125 -1.3125 C 17 -0.632812 17.828125 -0.296875 18.765625 -0.296875 L 18.765625 0 L 17.859375 0 C 16.316406 0 15.109375 -0.300781 14.234375 -0.90625 C 13.566406 -1.351562 12.960938 -1.910156 12.421875 -2.578125 C 12.304688 -2.734375 11.8125 -3.414062 10.9375 -4.625 C 10.070312 -5.84375 9.609375 -6.492188 9.546875 -6.578125 C 8.503906 -7.878906 7.523438 -8.53125 6.609375 -8.53125 L 6.609375 -8.828125 C 8.878906 -8.828125 10.25 -8.941406 10.71875 -9.171875 C 11.363281 -9.503906 11.800781 -9.851562 12.03125 -10.21875 C 12.519531 -11 12.765625 -11.859375 12.765625 -12.796875 C 12.765625 -13.984375 12.414062 -14.898438 11.71875 -15.546875 C 11.019531 -16.191406 10.070312 -16.539062 8.875 -16.59375 C 8.351562 -16.613281 7.753906 -16.625 7.078125 -16.625 Z M 7.078125 -16.625 "/></g></g></g><g fill="#000000" fill-opacity="1"><g transform="translate(225.452064, 26.176516)"><g><path d="M 19.4375 -17.234375 L 18.984375 -17.234375 C 18.460938 -17.234375 18.066406 -17.03125 17.796875 -16.625 C 17.679688 -16.445312 17.613281 -16.242188 17.59375 -16.015625 L 17.59375 -6.171875 C 17.59375 -4.140625 16.941406 -2.535156 15.640625 -1.359375 C 14.347656 -0.179688 12.570312 0.40625 10.3125 0.40625 C 8.050781 0.40625 6.269531 -0.175781 4.96875 -1.34375 C 3.664062 -2.507812 3.015625 -4.109375 3.015625 -6.140625 L 3.015625 -15.984375 C 3.015625 -16.335938 2.875 -16.632812 2.59375 -16.875 C 2.320312 -17.113281 1.992188 -17.234375 1.609375 -17.234375 L 1.171875 -17.234375 L 1.171875 -17.53125 L 6.71875 -17.53125 L 6.71875 -17.234375 L 6.28125 -17.234375 C 5.894531 -17.234375 5.5625 -17.113281 5.28125 -16.875 C 5.007812 -16.632812 4.875 -16.335938 4.875 -15.984375 L 4.875 -6.484375 C 4.875 -4.597656 5.351562 -3.109375 6.3125 -2.015625 C 7.28125 -0.921875 8.644531 -0.375 10.40625 -0.375 C 12.175781 -0.375 13.59375 -0.890625 14.65625 -1.921875 C 15.71875 -2.960938 16.25 -4.378906 16.25 -6.171875 L 16.25 -15.984375 C 16.226562 -16.347656 16.082031 -16.644531 15.8125 -16.875 C 15.550781 -17.113281 15.226562 -17.234375 14.84375 -17.234375 L 14.40625 -17.234375 L 14.40625 -17.53125 L 19.4375 -17.53125 Z M 19.4375 -17.234375 "/></g></g></g></g></g></g></g></svg>