<svg xmlns="http://www.w3.org/2000/svg" xmlns:xlink="http://www.w3.org/1999/xlink" width="192" zoomAndPan="magnify" viewBox="0 0 144 143.999998" height="192" preserveAspectRatio="xMidYMid meet" version="1.0"><defs><g/><clipPath id="b34e6bcc78"><path d="M 71.886719 0 L 85.941406 0 L 85.941406 144 L 71.886719 144 Z M 71.886719 0 " clip-rule="nonzero"/></clipPath><clipPath id="fe76476947"><path d="M 0.886719 0 L 14.941406 0 L 14.941406 144 L 0.886719 144 Z M 0.886719 0 " clip-rule="nonzero"/></clipPath><clipPath id="d27b747236"><rect x="0" width="15" y="0" height="144"/></clipPath><clipPath id="8f3948662c"><rect x="0" width="40" y="0" height="66"/></clipPath><clipPath id="5e76f1cccd"><rect x="0" width="15" y="0" height="58"/></clipPath><clipPath id="409bb3f659"><path d="M 0 64.597656 L 144 64.597656 L 144 76.25 L 0 76.25 Z M 0 64.597656 " clip-rule="nonzero"/></clipPath><clipPath id="1797c63685"><path d="M 0 0.597656 L 144 0.597656 L 144 12.25 L 0 12.25 Z M 0 0.597656 " clip-rule="nonzero"/></clipPath><clipPath id="ef54fe73a9"><rect x="0" width="144" y="0" height="13"/></clipPath><clipPath id="9ef3847b74"><rect x="0" width="95" y="0" height="16"/></clipPath><clipPath id="07fdbe50c4"><rect x="0" width="144" y="0" height="144"/></clipPath></defs><rect x="-14.4" width="172.8" fill="#ffffff" y="-14.4" height="172.799997" fill-opacity="1"/><rect x="-14.4" width="172.8" fill="#0cc0df" y="-14.4" height="172.799997" fill-opacity="1"/><g transform="matrix(1, 0, 0, 1, 0, -0.000000000000008916)"><g clip-path="url(#07fdbe50c4)"><g clip-path="url(#b34e6bcc78)"><g transform="matrix(1, 0, 0, 1, 71, -0.000000000000008916)"><g clip-path="url(#d27b747236)"><g clip-path="url(#fe76476947)"><path fill="#0cc0df" d="M 14.941406 -71.472656 L 14.941406 196.796875 L 0.886719 196.796875 L 0.886719 -71.472656 Z M 14.941406 -71.472656 " fill-opacity="1" fill-rule="nonzero"/></g></g></g></g><g transform="matrix(1, 0, 0, 1, 47, 39)"><g clip-path="url(#8f3948662c)"><g fill="#000000" fill-opacity="1"><g transform="translate(0.265486, 47.085489)"><g><path d="M 20.3125 0.671875 C 15.144531 0.640625 10.953125 -0.988281 7.734375 -4.21875 C 4.515625 -7.445312 2.90625 -11.695312 2.90625 -16.96875 C 2.90625 -22.238281 4.515625 -26.5 7.734375 -29.75 C 10.953125 -33 15.144531 -34.625 20.3125 -34.625 C 24.769531 -34.625 28.695312 -33.523438 32.09375 -31.328125 L 33.0625 -24.484375 L 32.625 -24.484375 C 31.914062 -27.265625 30.484375 -29.40625 28.328125 -30.90625 C 26.179688 -32.40625 23.507812 -33.15625 20.3125 -33.15625 C 16.207031 -33.15625 12.882812 -31.664062 10.34375 -28.6875 C 7.8125 -25.71875 6.546875 -21.8125 6.546875 -16.96875 C 6.546875 -12.125 7.8125 -8.222656 10.34375 -5.265625 C 12.882812 -2.304688 16.207031 -0.8125 20.3125 -0.78125 C 22.414062 -0.78125 24.410156 -1.148438 26.296875 -1.890625 C 28.191406 -2.628906 29.847656 -3.664062 31.265625 -5 L 31.265625 -13.578125 C 31.265625 -14.285156 31.046875 -14.820312 30.609375 -15.1875 C 30.179688 -15.5625 29.578125 -15.75 28.796875 -15.75 L 28.03125 -15.75 L 28.03125 -16.25 L 37.53125 -16.25 L 37.53125 -15.75 L 36.796875 -15.75 C 35.992188 -15.75 35.378906 -15.5625 34.953125 -15.1875 C 34.535156 -14.820312 34.34375 -14.285156 34.375 -13.578125 L 34.375 -5.578125 C 33.53125 -4.472656 32.523438 -3.484375 31.359375 -2.609375 C 30.203125 -1.742188 28.644531 -0.976562 26.6875 -0.3125 C 24.726562 0.34375 22.601562 0.671875 20.3125 0.671875 Z M 20.3125 0.671875 "/></g></g></g></g></g><g transform="matrix(1, 0, 0, 1, 65, 47)"><g clip-path="url(#5e76f1cccd)"><g fill="#000000" fill-opacity="1"><g transform="translate(0.34991, 41.072385)"><g><path d="M 11.140625 -28.890625 C 10.128906 -28.890625 9.359375 -28.457031 8.828125 -27.59375 C 8.609375 -27.207031 8.484375 -26.757812 8.453125 -26.25 L 8.453125 0 C 8.453125 2.34375 7.71875 4.320312 6.25 5.9375 C 4.789062 7.5625 2.988281 8.375 0.84375 8.375 L 0.84375 8 C 2.207031 7.519531 3.363281 6.488281 4.3125 4.90625 C 5.257812 3.332031 5.734375 1.65625 5.734375 -0.125 L 5.734375 -26.25 C 5.703125 -26.976562 5.425781 -27.597656 4.90625 -28.109375 C 4.394531 -28.628906 3.78125 -28.890625 3.0625 -28.890625 L 2.515625 -28.890625 L 2.515625 -29.3125 L 11.6875 -29.3125 L 11.6875 -28.890625 Z M 11.140625 -28.890625 "/></g></g></g></g></g><g clip-path="url(#409bb3f659)"><g transform="matrix(1, 0, 0, 1, 0, 64)"><g clip-path="url(#ef54fe73a9)"><g clip-path="url(#1797c63685)"><path fill="#0cc0df" d="M -29.6875 0.597656 L 275.035156 0.597656 L 275.035156 12.25 L -29.6875 12.25 Z M -29.6875 0.597656 " fill-opacity="1" fill-rule="nonzero"/></g></g></g></g><g transform="matrix(1, 0, 0, 1, 25, 63)"><g clip-path="url(#9ef3847b74)"><g fill="#000000" fill-opacity="1"><g transform="translate(1.050879, 10.566202)"><g><path d="M 2.90625 -7.5625 C 2.644531 -7.5625 2.445312 -7.445312 2.3125 -7.21875 C 2.25 -7.113281 2.21875 -7 2.21875 -6.875 L 2.21875 0 C 2.21875 0.613281 2.023438 1.128906 1.640625 1.546875 C 1.253906 1.972656 0.78125 2.1875 0.21875 2.1875 L 0.21875 2.09375 C 0.570312 1.96875 0.875 1.695312 1.125 1.28125 C 1.375 0.875 1.5 0.4375 1.5 -0.03125 L 1.5 -6.875 C 1.488281 -7.0625 1.414062 -7.222656 1.28125 -7.359375 C 1.144531 -7.492188 0.984375 -7.5625 0.796875 -7.5625 L 0.65625 -7.5625 L 0.65625 -7.671875 L 3.0625 -7.671875 L 3.0625 -7.5625 Z M 2.90625 -7.5625 "/></g></g></g><g fill="#000000" fill-opacity="1"><g transform="translate(6.484424, 10.566202)"><g><path d="M 7.28125 -6.46875 L 7.125 -6.46875 C 6.925781 -6.46875 6.773438 -6.390625 6.671875 -6.234375 C 6.628906 -6.171875 6.601562 -6.09375 6.59375 -6 L 6.59375 -2.3125 C 6.59375 -1.550781 6.347656 -0.945312 5.859375 -0.5 C 5.378906 -0.0625 4.710938 0.15625 3.859375 0.15625 C 3.015625 0.15625 2.347656 -0.0625 1.859375 -0.5 C 1.367188 -0.9375 1.125 -1.535156 1.125 -2.296875 L 1.125 -5.984375 C 1.125 -6.117188 1.070312 -6.234375 0.96875 -6.328125 C 0.875 -6.421875 0.753906 -6.46875 0.609375 -6.46875 L 0.4375 -6.46875 L 0.4375 -6.578125 L 2.515625 -6.578125 L 2.515625 -6.46875 L 2.359375 -6.46875 C 2.210938 -6.46875 2.085938 -6.421875 1.984375 -6.328125 C 1.878906 -6.234375 1.828125 -6.117188 1.828125 -5.984375 L 1.828125 -2.4375 C 1.828125 -1.726562 2.003906 -1.164062 2.359375 -0.75 C 2.722656 -0.34375 3.234375 -0.140625 3.890625 -0.140625 C 4.554688 -0.140625 5.085938 -0.332031 5.484375 -0.71875 C 5.890625 -1.101562 6.09375 -1.632812 6.09375 -2.3125 L 6.09375 -5.984375 C 6.082031 -6.128906 6.023438 -6.242188 5.921875 -6.328125 C 5.828125 -6.421875 5.707031 -6.46875 5.5625 -6.46875 L 5.40625 -6.46875 L 5.40625 -6.578125 L 7.28125 -6.578125 Z M 7.28125 -6.46875 "/></g></g></g><g fill="#000000" fill-opacity="1"><g transform="translate(16.035945, 10.566202)"><g><path d="M 2.65625 -6.234375 L 2.0625 -6.234375 L 2.0625 -0.703125 C 2.070312 -0.472656 2.175781 -0.300781 2.375 -0.1875 C 2.46875 -0.132812 2.570312 -0.109375 2.6875 -0.109375 L 2.84375 -0.109375 L 2.84375 0 L 0.609375 0 L 0.609375 -0.109375 L 0.75 -0.109375 C 0.914062 -0.109375 1.0625 -0.164062 1.1875 -0.28125 C 1.3125 -0.394531 1.375 -0.53125 1.375 -0.6875 L 1.375 -5.890625 C 1.375 -6.054688 1.3125 -6.191406 1.1875 -6.296875 C 1.0625 -6.410156 0.914062 -6.46875 0.75 -6.46875 L 0.609375 -6.46875 L 0.609375 -6.578125 L 3.359375 -6.578125 C 4.035156 -6.578125 4.570312 -6.414062 4.96875 -6.09375 C 5.375 -5.78125 5.578125 -5.367188 5.578125 -4.859375 C 5.578125 -4.347656 5.414062 -3.921875 5.09375 -3.578125 C 4.769531 -3.234375 4.359375 -3.035156 3.859375 -2.984375 C 4.097656 -2.890625 4.378906 -2.609375 4.703125 -2.140625 C 4.703125 -2.140625 4.832031 -1.976562 5.09375 -1.65625 C 5.351562 -1.332031 5.5625 -1.082031 5.71875 -0.90625 C 5.875 -0.726562 6 -0.59375 6.09375 -0.5 C 6.363281 -0.238281 6.675781 -0.109375 7.03125 -0.109375 L 7.03125 0 L 6.6875 0 C 6.113281 0 5.660156 -0.113281 5.328125 -0.34375 C 5.085938 -0.507812 4.863281 -0.71875 4.65625 -0.96875 C 4.613281 -1.019531 4.425781 -1.273438 4.09375 -1.734375 C 3.769531 -2.191406 3.597656 -2.4375 3.578125 -2.46875 C 3.179688 -2.957031 2.8125 -3.203125 2.46875 -3.203125 L 2.46875 -3.3125 C 3.320312 -3.3125 3.835938 -3.351562 4.015625 -3.4375 C 4.253906 -3.5625 4.421875 -3.691406 4.515625 -3.828125 C 4.691406 -4.117188 4.78125 -4.441406 4.78125 -4.796875 C 4.78125 -5.242188 4.648438 -5.585938 4.390625 -5.828125 C 4.128906 -6.066406 3.773438 -6.195312 3.328125 -6.21875 C 3.128906 -6.226562 2.90625 -6.234375 2.65625 -6.234375 Z M 2.65625 -6.234375 "/></g></g></g><g fill="#000000" fill-opacity="1"><g transform="translate(24.787961, 10.566202)"><g><path d="M 7.96875 -6.46875 C 7.800781 -6.46875 7.660156 -6.410156 7.546875 -6.296875 C 7.429688 -6.191406 7.367188 -6.066406 7.359375 -5.921875 L 7.359375 -1.25 C 7.359375 -0.820312 7.382812 -0.421875 7.4375 -0.046875 L 7.453125 0.15625 L 7.359375 0.15625 L 1.671875 -5.25 L 1.671875 -0.671875 C 1.671875 -0.515625 1.726562 -0.378906 1.84375 -0.265625 C 1.957031 -0.160156 2.097656 -0.109375 2.265625 -0.109375 L 2.453125 -0.109375 L 2.453125 0 L 0.390625 0 L 0.390625 -0.109375 L 0.5625 -0.109375 C 0.738281 -0.109375 0.882812 -0.160156 1 -0.265625 C 1.113281 -0.378906 1.171875 -0.515625 1.171875 -0.671875 L 1.171875 -5.359375 C 1.171875 -5.804688 1.144531 -6.207031 1.09375 -6.5625 L 1.078125 -6.734375 L 1.1875 -6.71875 L 6.875 -1.375 L 6.875 -5.921875 C 6.863281 -6.066406 6.796875 -6.191406 6.671875 -6.296875 C 6.554688 -6.410156 6.421875 -6.46875 6.265625 -6.46875 L 6.078125 -6.46875 L 6.078125 -6.578125 L 8.15625 -6.578125 L 8.15625 -6.46875 Z M 7.96875 -6.46875 "/></g></g></g><g fill="#000000" fill-opacity="1"><g transform="translate(35.204697, 10.566202)"><g><path d="M 7.234375 -0.109375 L 7.3125 -0.109375 L 7.3125 0 L 5.078125 0 L 5.078125 -0.109375 L 5.15625 -0.109375 C 5.289062 -0.109375 5.394531 -0.15625 5.46875 -0.25 C 5.550781 -0.34375 5.59375 -0.429688 5.59375 -0.515625 C 5.59375 -0.597656 5.578125 -0.679688 5.546875 -0.765625 L 4.9375 -2.21875 L 2.171875 -2.21875 L 1.5625 -0.796875 C 1.53125 -0.703125 1.515625 -0.613281 1.515625 -0.53125 C 1.515625 -0.445312 1.550781 -0.351562 1.625 -0.25 C 1.695312 -0.15625 1.804688 -0.109375 1.953125 -0.109375 L 2.03125 -0.109375 L 2.03125 0 L -0.0625 0 L -0.0625 -0.109375 L 0.03125 -0.109375 C 0.1875 -0.109375 0.34375 -0.160156 0.5 -0.265625 C 0.65625 -0.367188 0.785156 -0.53125 0.890625 -0.75 C 2.484375 -4.164062 3.316406 -5.953125 3.390625 -6.109375 C 3.515625 -6.421875 3.578125 -6.625 3.578125 -6.71875 L 3.6875 -6.71875 L 6.390625 -0.75 C 6.597656 -0.320312 6.878906 -0.109375 7.234375 -0.109375 Z M 2.3125 -2.546875 L 4.8125 -2.546875 L 3.578125 -5.546875 Z M 2.3125 -2.546875 "/></g></g></g><g fill="#000000" fill-opacity="1"><g transform="translate(44.350992, 10.566202)"><g><path d="M 0.75 -0.109375 C 0.925781 -0.109375 1.070312 -0.164062 1.1875 -0.28125 C 1.3125 -0.394531 1.378906 -0.53125 1.390625 -0.6875 L 1.390625 -5.875 C 1.378906 -6.03125 1.3125 -6.164062 1.1875 -6.28125 C 1.0625 -6.40625 0.910156 -6.46875 0.734375 -6.46875 L 0.609375 -6.46875 L 0.609375 -6.578125 L 2.875 -6.578125 L 2.875 -6.46875 L 2.734375 -6.46875 C 2.554688 -6.46875 2.40625 -6.40625 2.28125 -6.28125 C 2.15625 -6.164062 2.09375 -6.03125 2.09375 -5.875 L 2.09375 -0.34375 L 3.796875 -0.34375 C 4.128906 -0.34375 4.410156 -0.398438 4.640625 -0.515625 C 4.878906 -0.628906 5.054688 -0.765625 5.171875 -0.921875 C 5.296875 -1.085938 5.421875 -1.300781 5.546875 -1.5625 L 5.65625 -1.5625 L 5.046875 0 L 0.609375 0 L 0.609375 -0.109375 Z M 0.75 -0.109375 "/></g></g></g><g fill="#000000" fill-opacity="1"><g transform="translate(52.10637, 10.566202)"><g/></g></g><g fill="#000000" fill-opacity="1"><g transform="translate(56.729465, 10.566202)"><g><path d="M 4.140625 0.15625 C 3.054688 0.144531 2.1875 -0.164062 1.53125 -0.78125 C 0.875 -1.394531 0.546875 -2.226562 0.546875 -3.28125 C 0.546875 -4.34375 0.875 -5.179688 1.53125 -5.796875 C 2.1875 -6.410156 3.03125 -6.71875 4.0625 -6.71875 C 5.09375 -6.71875 5.96875 -6.5 6.6875 -6.0625 L 6.9375 -4.515625 L 6.828125 -4.515625 C 6.679688 -5.160156 6.382812 -5.632812 5.9375 -5.9375 C 5.5 -6.238281 4.875 -6.390625 4.0625 -6.390625 C 3.257812 -6.390625 2.601562 -6.109375 2.09375 -5.546875 C 1.59375 -4.992188 1.34375 -4.238281 1.34375 -3.28125 C 1.34375 -2.320312 1.597656 -1.5625 2.109375 -1 C 2.617188 -0.445312 3.320312 -0.171875 4.21875 -0.171875 C 5.125 -0.171875 5.898438 -0.488281 6.546875 -1.125 L 6.5625 -2.578125 C 6.570312 -2.710938 6.53125 -2.816406 6.4375 -2.890625 C 6.34375 -2.972656 6.21875 -3.015625 6.0625 -3.015625 L 5.90625 -3.015625 L 5.90625 -3.125 L 7.90625 -3.125 L 7.90625 -3.015625 L 7.75 -3.015625 C 7.425781 -3.015625 7.265625 -2.867188 7.265625 -2.578125 L 7.265625 -1.265625 C 6.953125 -0.878906 6.523438 -0.546875 5.984375 -0.265625 C 5.453125 0.015625 4.835938 0.15625 4.140625 0.15625 Z M 4.140625 0.15625 "/></g></g></g><g fill="#000000" fill-opacity="1"><g transform="translate(66.740975, 10.566202)"><g><path d="M 7.28125 -6.46875 L 7.125 -6.46875 C 6.925781 -6.46875 6.773438 -6.390625 6.671875 -6.234375 C 6.628906 -6.171875 6.601562 -6.09375 6.59375 -6 L 6.59375 -2.3125 C 6.59375 -1.550781 6.347656 -0.945312 5.859375 -0.5 C 5.378906 -0.0625 4.710938 0.15625 3.859375 0.15625 C 3.015625 0.15625 2.347656 -0.0625 1.859375 -0.5 C 1.367188 -0.9375 1.125 -1.535156 1.125 -2.296875 L 1.125 -5.984375 C 1.125 -6.117188 1.070312 -6.234375 0.96875 -6.328125 C 0.875 -6.421875 0.753906 -6.46875 0.609375 -6.46875 L 0.4375 -6.46875 L 0.4375 -6.578125 L 2.515625 -6.578125 L 2.515625 -6.46875 L 2.359375 -6.46875 C 2.210938 -6.46875 2.085938 -6.421875 1.984375 -6.328125 C 1.878906 -6.234375 1.828125 -6.117188 1.828125 -5.984375 L 1.828125 -2.4375 C 1.828125 -1.726562 2.003906 -1.164062 2.359375 -0.75 C 2.722656 -0.34375 3.234375 -0.140625 3.890625 -0.140625 C 4.554688 -0.140625 5.085938 -0.332031 5.484375 -0.71875 C 5.890625 -1.101562 6.09375 -1.632812 6.09375 -2.3125 L 6.09375 -5.984375 C 6.082031 -6.128906 6.023438 -6.242188 5.921875 -6.328125 C 5.828125 -6.421875 5.707031 -6.46875 5.5625 -6.46875 L 5.40625 -6.46875 L 5.40625 -6.578125 L 7.28125 -6.578125 Z M 7.28125 -6.46875 "/></g></g></g><g fill="#000000" fill-opacity="1"><g transform="translate(76.292496, 10.566202)"><g><path d="M 2.65625 -6.234375 L 2.0625 -6.234375 L 2.0625 -0.703125 C 2.070312 -0.472656 2.175781 -0.300781 2.375 -0.1875 C 2.46875 -0.132812 2.570312 -0.109375 2.6875 -0.109375 L 2.84375 -0.109375 L 2.84375 0 L 0.609375 0 L 0.609375 -0.109375 L 0.75 -0.109375 C 0.914062 -0.109375 1.0625 -0.164062 1.1875 -0.28125 C 1.3125 -0.394531 1.375 -0.53125 1.375 -0.6875 L 1.375 -5.890625 C 1.375 -6.054688 1.3125 -6.191406 1.1875 -6.296875 C 1.0625 -6.410156 0.914062 -6.46875 0.75 -6.46875 L 0.609375 -6.46875 L 0.609375 -6.578125 L 3.359375 -6.578125 C 4.035156 -6.578125 4.570312 -6.414062 4.96875 -6.09375 C 5.375 -5.78125 5.578125 -5.367188 5.578125 -4.859375 C 5.578125 -4.347656 5.414062 -3.921875 5.09375 -3.578125 C 4.769531 -3.234375 4.359375 -3.035156 3.859375 -2.984375 C 4.097656 -2.890625 4.378906 -2.609375 4.703125 -2.140625 C 4.703125 -2.140625 4.832031 -1.976562 5.09375 -1.65625 C 5.351562 -1.332031 5.5625 -1.082031 5.71875 -0.90625 C 5.875 -0.726562 6 -0.59375 6.09375 -0.5 C 6.363281 -0.238281 6.675781 -0.109375 7.03125 -0.109375 L 7.03125 0 L 6.6875 0 C 6.113281 0 5.660156 -0.113281 5.328125 -0.34375 C 5.085938 -0.507812 4.863281 -0.71875 4.65625 -0.96875 C 4.613281 -1.019531 4.425781 -1.273438 4.09375 -1.734375 C 3.769531 -2.191406 3.597656 -2.4375 3.578125 -2.46875 C 3.179688 -2.957031 2.8125 -3.203125 2.46875 -3.203125 L 2.46875 -3.3125 C 3.320312 -3.3125 3.835938 -3.351562 4.015625 -3.4375 C 4.253906 -3.5625 4.421875 -3.691406 4.515625 -3.828125 C 4.691406 -4.117188 4.78125 -4.441406 4.78125 -4.796875 C 4.78125 -5.242188 4.648438 -5.585938 4.390625 -5.828125 C 4.128906 -6.066406 3.773438 -6.195312 3.328125 -6.21875 C 3.128906 -6.226562 2.90625 -6.234375 2.65625 -6.234375 Z M 2.65625 -6.234375 "/></g></g></g><g fill="#000000" fill-opacity="1"><g transform="translate(85.044512, 10.566202)"><g><path d="M 7.28125 -6.46875 L 7.125 -6.46875 C 6.925781 -6.46875 6.773438 -6.390625 6.671875 -6.234375 C 6.628906 -6.171875 6.601562 -6.09375 6.59375 -6 L 6.59375 -2.3125 C 6.59375 -1.550781 6.347656 -0.945312 5.859375 -0.5 C 5.378906 -0.0625 4.710938 0.15625 3.859375 0.15625 C 3.015625 0.15625 2.347656 -0.0625 1.859375 -0.5 C 1.367188 -0.9375 1.125 -1.535156 1.125 -2.296875 L 1.125 -5.984375 C 1.125 -6.117188 1.070312 -6.234375 0.96875 -6.328125 C 0.875 -6.421875 0.753906 -6.46875 0.609375 -6.46875 L 0.4375 -6.46875 L 0.4375 -6.578125 L 2.515625 -6.578125 L 2.515625 -6.46875 L 2.359375 -6.46875 C 2.210938 -6.46875 2.085938 -6.421875 1.984375 -6.328125 C 1.878906 -6.234375 1.828125 -6.117188 1.828125 -5.984375 L 1.828125 -2.4375 C 1.828125 -1.726562 2.003906 -1.164062 2.359375 -0.75 C 2.722656 -0.34375 3.234375 -0.140625 3.890625 -0.140625 C 4.554688 -0.140625 5.085938 -0.332031 5.484375 -0.71875 C 5.890625 -1.101562 6.09375 -1.632812 6.09375 -2.3125 L 6.09375 -5.984375 C 6.082031 -6.128906 6.023438 -6.242188 5.921875 -6.328125 C 5.828125 -6.421875 5.707031 -6.46875 5.5625 -6.46875 L 5.40625 -6.46875 L 5.40625 -6.578125 L 7.28125 -6.578125 Z M 7.28125 -6.46875 "/></g></g></g></g></g></g></g></svg>